<svg width="80" height="27" viewBox="0 0 80 27" fill="none" xmlns="http://www.w3.org/2000/svg">
<g style="mix-blend-mode:color-dodge">
<path d="M16.4613 6.18827H10.0336V0.995117H20.0867L25.2995 6.18827V11.4794L22.6931 14.0858L25.2995 16.6921V21.8069L20.0867 27.0001H10.0336V21.8069H16.4613V16.261H10.0336V11.7342H16.4613V6.18827ZM0 0.995117H8.66178V27.0001H0V0.995117Z" fill="#D6BF8F"/>
<path d="M32.9383 21.4542H35.5447V6.52141H32.9383V0.995117H46.8128V6.52141H44.2064V21.4542H46.8128V27.0001H32.9383V21.4542Z" fill="#D6BF8F"/>
<path d="M63.0938 21.7089H66.3469V27.0001H59.684L54.4125 21.8069V6.18827L59.684 0.995117H66.3469V6.26665H63.0938V21.7089ZM71.0305 6.26665H67.7187V0.995117H74.4404L79.6923 6.18827V21.8069L74.4404 27.0001H67.7187V21.7089H71.0305V6.26665Z" fill="#D6BF8F"/>
</g>
</svg>
