<svg width="320" height="86" viewBox="0 0 320 86" fill="none" xmlns="http://www.w3.org/2000/svg">
<g filter="url(#filter0_d_32_10)">
<path d="M0 62.2801V0H20.7444V62.2801H0ZM24.0297 12.4372V0H47.7309L60.215 12.4372V31.1166L50.6407 40.6909L31.2574 43.6008H24.0297V31.539H39.6114V12.4372H24.0297ZM62.327 62.2801H40.1746L31.2574 43.6008L50.6407 40.6909L62.327 62.2801Z" fill="white"/>
<path d="M124.701 49.8428L112.264 62.2801H98.3716V50.6407H103.534V24.8745H98.3716V12.4372H112.264L124.701 24.8745V49.8428ZM89.689 50.6407H95.0863V62.2801H81.1472L68.7099 49.8428V24.8745L81.1472 12.4372H95.0863V24.8745H89.689V50.6407Z" fill="white"/>
<path d="M166.894 24.8745H157.695V12.4372H175.201L187.638 24.8745V67.208L175.201 79.7392H147.839L141.597 73.4501V68.8507H166.894V24.8745ZM163.608 50.6407V56.1319L157.413 62.2801H146.102L133.665 49.8428V24.8745L146.102 12.4372H154.41V50.6407H163.608Z" fill="white"/>
<path d="M217.3 62.2801H208.993L196.555 49.8428V24.8745L208.993 12.4372H217.3V62.2801ZM220.585 42.2866V33.604H231.52V24.8745H220.585V12.4372H238.185L250.622 24.8745V42.2866H220.585ZM220.585 62.2801V50.6407H248.463V56.038L242.268 62.2801H220.585Z" fill="white"/>
<path d="M292.393 24.8745H283.569V19.4303L290.515 12.4372H303.093L313.184 24.0766V36.9832H292.393V24.8745ZM259.493 62.2801V12.4372H280.237V62.2801H259.493Z" fill="white"/>
</g>
<defs>
<filter id="filter0_d_32_10" x="0" y="0" width="317.184" height="83.7393" filterUnits="userSpaceOnUse" color-interpolation-filters="sRGB">
<feFlood flood-opacity="0" result="BackgroundImageFix"/>
<feColorMatrix in="SourceAlpha" type="matrix" values="0 0 0 0 0 0 0 0 0 0 0 0 0 0 0 0 0 0 127 0" result="hardAlpha"/>
<feOffset dx="4" dy="4"/>
<feComposite in2="hardAlpha" operator="out"/>
<feColorMatrix type="matrix" values="0 0 0 0 0 0 0 0 0 0 0 0 0 0 0 0 0 0 0.8 0"/>
<feBlend mode="normal" in2="BackgroundImageFix" result="effect1_dropShadow_32_10"/>
<feBlend mode="normal" in="SourceGraphic" in2="effect1_dropShadow_32_10" result="shape"/>
</filter>
</defs>
</svg>
